<?xml version="1.0" standalone="no"?><svg xmlns="http://www.w3.org/2000/svg" viewBox="0 0 1440 320"><path fill="#273036" fill-opacity="1" d="M0,160L40,165.3C80,171,160,181,240,181.3C320,181,400,171,480,192C560,213,640,267,720,282.7C800,299,880,277,960,277.3C1040,277,1120,299,1200,272C1280,245,1360,171,1400,133.3L1440,96L1440,320L1400,320C1360,320,1280,320,1200,320C1120,320,1040,320,960,320C880,320,800,320,720,320C640,320,560,320,480,320C400,320,320,320,240,320C160,320,80,320,40,320L0,320Z"></path></svg>